<svg id="Layer_1" xmlns="http://www.w3.org/2000/svg" viewBox="0 0 20 20"><style>.st0{fill:#999999;}</style><path class="st0" d="M6 3c3.3 0 6-.4 6-1V1c0-.6-2.7-1-6-1S0 .4 0 1v1c0 .6 2.7 1 6 1zM13.9 11H13v2h.9c.6 0 1-.4 1-1s-.5-1-1-1z"/><path class="st0" d="M13.5 7C9.9 7 7 9.9 7 13.5S9.9 20 13.5 20s6.5-2.9 6.5-6.5S17.1 7 13.5 7zm.4 7H13v1h1.9v1H13v1h-1v-1h-1v-1h1v-1h-1v-1h1v-3h1.9c1.1 0 2 .9 2 2s-.9 2-2 2zM6 17c-3.3 0-6-.4-6-1v2c0 .6 2.7 1 6 1h1.7c-.5-.6-1-1.2-1.4-2H6zM5.6 15c-.1-.5-.1-1-.1-1.5V13C2.4 13 0 12.5 0 12v2c0 .5 2.5 1 5.6 1zM5.9 11c.2-.7.6-1.4 1-2H6c-3.3 0-6-.4-6-1v2c0 .5 2.6 1 5.9 1zM6 7c1.1 0 2.1-.1 3-.1.9-.6 1.9-1 3-1.2V4c0 .6-2.7 1-6 1s-6-.4-6-1v2c0 .6 2.7 1 6 1z"/></svg>